<?xml version="1.0" encoding="UTF-8" standalone="no"?>
<!-- Created with Inkscape (http://www.inkscape.org/) -->

<svg
   xmlns:dc="http://purl.org/dc/elements/1.1/"
   xmlns:cc="http://creativecommons.org/ns#"
   xmlns:rdf="http://www.w3.org/1999/02/22-rdf-syntax-ns#"
   xmlns:svg="http://www.w3.org/2000/svg"
   xmlns="http://www.w3.org/2000/svg"
   xmlns:sodipodi="http://sodipodi.sourceforge.net/DTD/sodipodi-0.dtd"
   xmlns:inkscape="http://www.inkscape.org/namespaces/inkscape"
   version="1.0"
   width="580"
   height="580"
   id="svg2"
   sodipodi:version="0.32"
   inkscape:version="0.48.0 r9654"
   sodipodi:docname="toilet.svg"
   inkscape:output_extension="org.inkscape.output.svg.inkscape">
  <metadata
     id="metadata2975">
    <rdf:RDF>
      <cc:Work
         rdf:about="">
        <dc:format>image/svg+xml</dc:format>
        <dc:type
           rdf:resource="http://purl.org/dc/dcmitype/StillImage" />
        <cc:license
           rdf:resource="http://web.resource.org/cc/PublicDomain" />
        <dc:language>en</dc:language>
      </cc:Work>
    </rdf:RDF>
  </metadata>
  <sodipodi:namedview
     inkscape:window-height="947"
     inkscape:window-width="1048"
     inkscape:pageshadow="2"
     inkscape:pageopacity="0.0"
     guidetolerance="10.0"
     gridtolerance="10.0"
     objecttolerance="10.0"
     borderopacity="1.0"
     bordercolor="#666666"
     pagecolor="#ffffff"
     id="base"
     inkscape:zoom="0.92167712"
     inkscape:cx="301.5186"
     inkscape:cy="281.19503"
     inkscape:window-x="91"
     inkscape:window-y="25"
     inkscape:current-layer="svg2"
     showgrid="false"
     inkscape:window-maximized="0" />
  <defs
     id="defs4">
    <inkscape:perspective
       sodipodi:type="inkscape:persp3d"
       inkscape:vp_x="0 : 290 : 1"
       inkscape:vp_y="0 : 1000 : 0"
       inkscape:vp_z="580 : 290 : 1"
       inkscape:persp3d-origin="290 : 193.33333 : 1"
       id="perspective2441" />
    <inkscape:perspective
       id="perspective3452"
       inkscape:persp3d-origin="30 : 20 : 1"
       inkscape:vp_z="60 : 30 : 1"
       inkscape:vp_y="0 : 1000 : 0"
       inkscape:vp_x="0 : 30 : 1"
       sodipodi:type="inkscape:persp3d" />
    <symbol
       viewBox="244.5 110 489 219.9"
       id="symbol-university">
      <path
         id="path4460"
         d="M79,43l57,119c0,0,21-96,104-96s124,106,124,106l43-133l82-17L0,17L79,43z" />
      <path
         id="path4462"
         d="M94,176l-21,39"
         stroke-width="20"
         stroke="#ff0000"
         fill="none" />
      <path
         id="path4464"
         d="M300,19c0,10.5-22.6,19-50.5,19S199,29.5,199,19s22.6-19,50.5-19S300,8.5,300,19z" />
      <path
         id="path4466"
         d="M112,216l-16-38L64,88c0,0-9-8-4-35s16-24,16-24"
         stroke-width="20"
         stroke="#ff0000"
         ill="none" />
    </symbol>
    <inkscape:perspective
       id="perspective4471"
       inkscape:persp3d-origin="372.04724 : 350.78739 : 1"
       inkscape:vp_z="744.09448 : 526.18109 : 1"
       inkscape:vp_y="0 : 1000 : 0"
       inkscape:vp_x="0 : 526.18109 : 1"
       sodipodi:type="inkscape:persp3d" />
    <inkscape:perspective
       id="perspective4668"
       inkscape:persp3d-origin="6 : 4 : 1"
       inkscape:vp_z="12 : 6 : 1"
       inkscape:vp_y="0 : 1000 : 0"
       inkscape:vp_x="0 : 6 : 1"
       sodipodi:type="inkscape:persp3d" />
  </defs>
  <g
     id="g1327">
    <path
       d="M 66.275,1.768 C 24.94,1.768 1.704,23.139 1.704,66.804 L 1.704,516.927 C 1.704,557.771 22.599,579.156 63.896,579.156 L 515.92,579.156 C 557.227,579.156 578.149,558.841 578.149,516.927 L 578.149,66.804 C 578.149,24.203 557.227,1.768 514.628,1.768 C 514.624,1.768 66.133,1.625 66.275,1.768 z "
       style="fill:#ff0000;stroke:#eee;stroke-width:3.40799999"
       id="path1329" />
  </g>
  <g
     id="layer3"
     inkscape:label="Layout"
     style="display:none;stroke:#757575;stroke-opacity:1"
     transform="matrix(48.14969,0,0,48.14969,-536.27327,-33.306752)">
    <rect
       style="fill:none;stroke:#757575;stroke-width:0.1;stroke-miterlimit:4;stroke-dasharray:none;stroke-opacity:1;display:inline"
       id="rect4134"
       width="10"
       height="10"
       x="1"
       y="1" />
    <rect
       style="fill:none;stroke:#757575;stroke-width:0.1;stroke-miterlimit:4;stroke-dasharray:none;stroke-opacity:1;display:inline"
       id="rect4136"
       width="8"
       height="8"
       x="2"
       y="2" />
  </g>
  <path
     style="font-size:40px;font-style:normal;font-variant:normal;font-weight:normal;font-stretch:normal;text-align:start;line-height:125%;writing-mode:lr-tb;text-anchor:start;fill:#ffffff;fill-opacity:1;stroke:none;stroke-width:1px;stroke-linecap:butt;stroke-linejoin:miter;stroke-opacity:1;font-family:NPSPICT3;-inkscape-font-specification:NPSPICT3"
     d="M 282.64529,512.4583 L 318.45711,512.4583 L 318.45711,61.17178 L 282.64529,61.17178 L 282.64529,512.4583 z M 174.96393,143.59872 L 102.68057,143.59872 C 91.409786,143.59908 81.273089,147.65375 72.270419,155.76278 C 65.507937,162.05819 61.006552,169.04048 58.766246,176.7097 L 27.675745,280.06296 C 26.782291,282.3173 26.335581,284.34465 26.335632,286.14498 C 26.335581,296.50868 31.510451,301.69043 41.860261,301.69023 C 49.076158,301.69043 53.811209,297.63574 56.065415,289.52617 L 84.434463,194.93518 L 99.959105,194.93518 L 53.343962,363.14964 L 98.618995,363.14964 L 98.618995,494.21221 C 98.61888,505.92269 104.24733,511.77792 115.50436,511.77794 C 126.76111,511.77792 132.38957,505.92269 132.38972,494.21221 L 132.38972,362.4899 L 149.29569,362.4899 L 149.29569,494.89257 C 149.29553,506.14948 154.92397,511.77792 166.18106,511.77794 C 177.43776,511.77792 183.06622,506.14948 183.06641,494.89257 L 183.06641,363.14964 L 228.32083,363.14964 L 181.04594,194.93518 L 197.25095,194.93518 L 225.62,289.52617 C 227.87388,297.63574 232.60206,301.69043 239.80454,301.69023 C 250.16776,301.69043 255.34951,296.50868 255.34978,286.14498 C 255.34951,283.89107 254.9028,281.86372 254.00968,280.06296 L 222.91917,176.7097 C 220.66479,169.49405 215.48992,162.51175 207.39454,155.76278 C 197.4844,147.65375 186.6742,143.59908 174.96393,143.59872 L 174.96393,143.59872 z M 140.51284,136.15597 C 150.86243,136.15632 159.64183,132.55522 166.85111,125.35263 C 174.06002,118.1508 177.66455,109.59472 177.66475,99.68441 C 177.66455,89.32131 174.06002,80.53845 166.85111,73.33581 C 159.64183,66.13403 150.86243,62.53293 140.51284,62.5325 C 130.60277,62.53293 122.04326,66.13403 114.8343,73.33581 C 107.62508,80.53845 104.02054,89.32131 104.02065,99.68441 C 104.02054,109.59472 107.62508,118.1508 114.8343,125.35263 C 122.04326,132.55522 130.60277,136.15632 140.51284,136.15597 L 140.51284,136.15597 z M 456.528,135.49621 C 466.43739,135.49658 474.9969,131.89203 482.20653,124.68258 C 489.41507,117.47387 493.01961,108.91436 493.02017,99.00405 C 493.01961,88.65469 489.41507,79.98867 482.20653,73.00595 C 474.9969,66.02408 466.43739,62.53293 456.528,62.5325 C 446.61756,62.53293 438.06149,66.02408 430.85977,73.00595 C 423.65706,79.98867 420.05596,88.65469 420.05644,99.00405 C 420.05596,108.91436 423.65706,117.47387 430.85977,124.68258 C 438.06149,131.89203 446.61756,135.49658 456.528,135.49621 L 456.528,135.49621 z M 504.50386,142.91837 L 407.89239,142.91837 C 394.83447,142.9187 383.68753,147.53693 374.45153,156.77301 C 365.21467,166.00978 360.59646,177.3835 360.59688,190.89423 L 360.59688,303.03034 C 360.59646,313.8476 365.55141,319.25613 375.46177,319.25595 C 384.91767,319.25613 389.64585,313.8476 389.64631,303.03034 L 389.64631,193.59506 L 407.21203,193.59506 L 407.21203,490.85163 C 407.21155,504.36266 413.96707,511.11818 427.47858,511.1182 C 440.98911,511.11818 447.74462,504.36266 447.74513,490.85163 L 447.74513,318.57559 L 465.31086,318.57559 L 465.31086,490.85163 C 465.31033,504.36266 472.06584,511.11818 485.57741,511.1182 C 499.54147,511.11818 506.52377,504.36266 506.52433,490.85163 L 506.52433,193.59506 L 523.4097,193.59506 L 523.4097,303.03034 C 523.40911,314.28743 528.13728,319.91587 537.59423,319.91571 C 547.06371,319.91587 551.79875,314.28743 551.79936,303.03034 L 551.79936,191.55397 C 551.79875,178.49682 547.40733,167.12653 538.62508,157.44307 C 529.84162,147.76028 518.4679,142.9187 504.50386,142.91837 L 504.50386,142.91837 z"
     id="flowRoot3192"
     sodipodi:nodetypes="ccccccccccssccccccsccccsccccccssccccccssssssscccsccssscccccsccsccccsccccsccccsccccc" />
  <path
     style="fill:#c80000;fill-opacity:1;stroke:none"
     d="M 56.421922,576.50137 C 28.976949,574.14481 13.048416,561.94928 6.3330073,538.15126 4.4302518,531.40829 4.342947,520.60343 4.342947,291.86111 4.342947,66.534416 4.4544112,52.213236 6.2598657,45.570952 10.840008,28.720568 19.911696,17.115383 33.458932,10.775867 48.119333,3.9154376 32.505353,4.2851986 294.30259,4.5987209 l 238.42496,0.285532 7.05236,2.5324357 c 14.02972,5.0379394 23.75301,13.4949034 29.40696,25.5771394 6.72819,14.377817 6.35788,-0.606816 6.3785,258.099292 0.0209,262.74974 0.50243,245.5415 -7.28591,260.39767 -4.53745,8.65514 -11.01437,14.76433 -20.28709,19.13526 -13.3029,6.27067 1.67188,5.90953 -252.33265,6.08536 -129.19384,0.0894 -236.850845,-0.005 -239.237798,-0.21004 l 0,0 z M 318.44427,286.9787 l 0,-226.218046 -17.90215,0 -17.90215,0 0,226.218046 0,226.21805 17.90215,0 17.90215,0 0,-226.21805 z M 125.02049,510.29537 c 2.58608,-1.22718 4.47932,-3.25095 5.83627,-6.23863 1.88549,-4.15139 2.00996,-8.59181 2.03233,-72.50463 l 0.0238,-68.08241 8.13734,0 8.13734,0 0.004,69.16739 c 0.004,67.46141 0.058,69.25596 2.1937,72.75886 5.53323,9.07556 23.02906,8.99086 29.73199,-0.14394 2.20941,-3.01103 2.25226,-4.22506 2.55644,-72.42233 l 0.30906,-69.35998 22.20396,0 c 14.81124,0 22.20395,-0.38003 22.20395,-1.14142 0,-1.08266 -45.23598,-162.72977 -46.35506,-165.64604 -0.39997,-1.0423 1.37354,-1.38423 7.17975,-1.38423 4.24101,0 7.71093,0.16317 7.71093,0.36259 0,2.20013 29.5614,98.07383 30.84277,100.02945 0.95524,1.45789 2.93661,3.43684 4.40302,4.39768 3.01688,1.97673 11.52479,2.2652 16.05129,0.54422 4.15902,-1.58124 7.28587,-7.218 7.27291,-13.11076 -0.007,-3.15282 -5.8982,-24.38702 -16.63025,-59.9414 -14.64187,-48.50729 -17.12452,-55.79227 -20.86359,-61.22123 -4.58451,-6.65651 -13.4265,-14.23325 -20.81134,-17.83333 -10.19137,-4.96826 -13.63171,-5.27973 -58.46812,-5.29332 -39.502294,-0.0119 -42.964858,0.13961 -49.534173,2.16868 -11.793252,3.64255 -22.035569,12.36646 -27.795195,23.67458 -1.316366,2.58447 -9.957841,29.89913 -19.203278,60.69923 -18.710185,62.33082 -18.568724,61.51063 -11.779955,68.2994 2.464227,2.46423 4.66529,3.60222 7.186794,3.71573 9.600379,0.43216 13.901636,-1.35019 16.80431,-6.96334 0.916544,-1.7724 8.126458,-24.76926 16.022031,-51.10412 l 14.355587,-47.88157 7.385849,-0.32392 c 5.711079,-0.25048 7.263114,-0.004 6.844578,1.0866 -0.297699,0.77579 -10.678413,38.02783 -23.068251,82.7823 -12.389837,44.75448 -22.757003,81.98207 -23.038144,82.72799 -0.398873,1.05829 4.519656,1.35623 22.389465,1.35623 l 22.900632,0 0.02383,68.08241 c 0.02234,63.82007 0.149097,68.35821 2.024753,72.48773 1.29766,2.85697 3.29131,5.04098 5.67231,6.21392 4.74932,2.33961 14.21983,2.36024 19.106,0.0415 l 0,6e-5 z m 313.78639,-1.2848 c 4.78526,-2.28671 7.67879,-6.29991 8.82682,-12.24239 0.50243,-2.60068 0.93477,-43.66568 0.96075,-91.25556 l 0.0473,-86.52705 8.13734,0 8.13734,0 0,89.16819 c 0,88.43862 0.0187,89.2068 2.28431,93.88694 3.04377,6.28759 8.55885,9.1359 17.79268,9.18917 12.1239,0.07 18.58228,-3.90381 21.10444,-12.98526 0.74585,-2.68554 1.12265,-54.19991 1.12668,-154.03328 l 0.006,-149.9983 7.59485,0 7.59485,0 0.007,53.4352 c 0.003,29.38936 0.47828,56.36464 1.05518,59.94507 1.48692,9.2285 5.16554,12.47725 14.12824,12.47725 5.53776,0 6.95554,-0.43213 9.7891,-2.98369 5.25261,-4.72983 5.62033,-10.22282 5.11928,-76.47258 -0.47554,-62.87408 -0.41351,-62.1273 -6.08266,-73.23976 -3.76083,-7.37182 -12.71132,-16.20445 -20.0317,-19.76791 -10.6984,-5.20783 -17.01916,-5.64444 -75.20739,-5.19494 -58.54882,0.45227 -57.61244,0.34858 -69.01393,7.64202 -11.89082,7.60647 -19.46943,19.94666 -21.4772,34.97115 -0.73378,5.49106 -1.03387,29.82568 -0.82243,66.69206 0.31811,55.46483 0.42775,58.20316 2.46526,61.57203 4.06641,6.72349 15.60143,8.65408 22.25424,3.72463 5.17715,-3.83605 5.32377,-5.63473 5.3891,-66.1104 l 0.061,-56.69013 8.1154,0 8.1154,0 0.29318,152.16825 c 0.2889,149.94603 0.32488,152.22206 2.46314,155.85227 1.19348,2.02621 3.5027,4.67739 5.1316,5.89151 5.45066,4.06274 17.10953,4.48181 24.6353,0.88551 z M 155.9298,133.1933 c 28.6245,-13.10474 29.60257,-53.470028 1.62085,-66.892697 -15.73533,-7.548141 -31.80676,-4.738681 -43.8442,7.664441 -9.46009,9.747487 -12.68856,25.491027 -7.85499,38.304686 2.77839,7.36541 11.06743,16.9216 17.54361,20.2255 9.75367,4.97595 22.58904,5.25135 32.53473,0.69807 l 0,0 z m 314.09153,0.0845 c 8.56606,-3.20498 17.55312,-12.19204 20.75809,-20.7581 5.12308,-13.692628 2.19822,-28.866263 -7.47943,-38.801935 -9.11363,-9.35663 -21.8034,-13.333934 -34.31492,-10.755195 -7.95511,1.639619 -11.30503,3.366318 -17.36127,8.948756 -6.33814,5.842301 -9.63872,11.723791 -11.24746,20.042487 -1.4859,7.683567 -0.16331,17.339497 3.30296,24.114087 3.84859,7.52181 14.04385,16.06251 21.85878,18.31138 6.68241,1.92296 17.72786,1.42604 24.48325,-1.10148 l 0,0 z"
     id="path2996"
     inkscape:connector-curvature="0" />
</svg>
